<svg id="visual" viewBox="0 0 540 960" width="540" height="960" xmlns="http://www.w3.org/2000/svg" xmlns:xlink="http://www.w3.org/1999/xlink" version="1.1"><path d="M0 586L18 575.8C36 565.7 72 545.3 108 555.2C144 565 180 605 216 608C252 611 288 577 324 564.3C360 551.7 396 560.3 432 576.3C468 592.3 504 615.7 522 627.3L540 639L540 961L522 961C504 961 468 961 432 961C396 961 360 961 324 961C288 961 252 961 216 961C180 961 144 961 108 961C72 961 36 961 18 961L0 961Z" fill="#F7770F" stroke-linecap="round" stroke-linejoin="miter"></path></svg>