<svg id="visual" viewBox="0 0 540 960" width="540" height="960" xmlns="http://www.w3.org/2000/svg" xmlns:xlink="http://www.w3.org/1999/xlink" version="1.1"><path d="M0 622L18 602.8C36 583.7 72 545.3 108 549.8C144 554.3 180 601.7 216 606.7C252 611.7 288 574.3 324 555.8C360 537.3 396 537.7 432 544C468 550.3 504 562.7 522 568.8L540 575L540 961L522 961C504 961 468 961 432 961C396 961 360 961 324 961C288 961 252 961 216 961C180 961 144 961 108 961C72 961 36 961 18 961L0 961Z" fill="#F7770F" stroke-linecap="round" stroke-linejoin="miter"></path></svg>