<svg id="visual" viewBox="0 0 540 960" width="540" height="960" xmlns="http://www.w3.org/2000/svg" xmlns:xlink="http://www.w3.org/1999/xlink" version="1.1"><path d="M0 546L22.5 545.8C45 545.7 90 545.3 135 552.5C180 559.7 225 574.3 270 592C315 609.7 360 630.3 405 636C450 641.7 495 632.3 517.5 627.7L540 623L540 961L517.5 961C495 961 450 961 405 961C360 961 315 961 270 961C225 961 180 961 135 961C90 961 45 961 22.5 961L0 961Z" fill="#F7770F" stroke-linecap="round" stroke-linejoin="miter"></path></svg>