<svg id="visual" viewBox="0 0 900 900" width="900" height="900" xmlns="http://www.w3.org/2000/svg" xmlns:xlink="http://www.w3.org/1999/xlink" version="1.1"><path d="M0 507L30 506.3C60 505.7 120 504.3 180 515.7C240 527 300 551 360 578.5C420 606 480 637 540 632.3C600 627.7 660 587.3 720 597.7C780 608 840 669 870 699.5L900 730L900 901L870 901C840 901 780 901 720 901C660 901 600 901 540 901C480 901 420 901 360 901C300 901 240 901 180 901C120 901 60 901 30 901L0 901Z" fill="#F7770F" stroke-linecap="round" stroke-linejoin="miter"></path></svg>